<svg viewBox="0 0 256 128" width="100%" height="100%" xmlns="http://www.w3.org/2000/svg"><path fill="#2e77bc" d="M0 0h256v128H0z"/><path fill="#fff" d="M96 82.5H79.8l-12.2-22.3-5-8.9h-.2l-1.3 7.5-3 15.6H42.7L56.1 48l17.8-.1 12.3 23L91 80h.2l1.3-7.5 3-15.6H111L96 82.5zM224 82V65.8h-11v16h8.7V93H198V47h23.5v10.8h-8.7v10h11v14h7v13H224V82zm-46.7.5H164V67h-9.5v15.5h-13.3V48h22.8c7 0 12.5 3.3 12.5 10v.5c0 5-3 8-7.5 9l8 15h-8M142 61v-6h4.5c2.5 0 4 1.5 4 3s-1.5 3-4 3H142M77.5 83l-8.5-23h-8l-8.5 23H37l16-39h13l16 39H77.5zm-5-34l-5.3 15h11l-5.7-15zm-45.5 34H11V44.5h16.5M11 68h9v-5h-9v-9h10.5V45H2v39h20V73H11v-5zM126.5 84V44h15V84h-15M171 45h21v9h-10v5.5h9v9h-9v6h10.5v9h-21V45z"/></svg>
