<svg viewBox="0 0 256 83" width="100%" height="100%" xmlns="http://www.w3.org/2000/svg"><path fill="#1434CB" d="M111.4 0l-17.8 81.3H71.7L89.5 0h21.9zM180.2 54c.1-14.8-20.3-15.6-20.2-22.2 0-.2.9-2.5 5.8-3.1 2.4-.3 8.9-.5 14.8 2.2l2.6-12.3c-3.2-1.1-7.4-2.2-12.8-2.2-21.2 0-36.2 11.2-36.3 27.3-.1 11.9 10.4 18.5 18.4 22.4 8.2 4 11.1 6.6 10.9 10.1 0 5.5-6.6 8-12.7 8-8.5 0-13.1-1.3-18-3.5l-2.6 12.4c4.9 2.2 11.5 4.1 18.4 4.2 22.6 0 37.5-11.1 37.6-27.4zM250.8 81.3h20.7l-18.1-81.3h-17.2c-4 0-7.2 2.2-8.6 5.8L197.8 81.3h22.6l4.5-12.5h27.7l2.7 12.5h-4.5zM229.4 50.5l11-30 6.3 30h-17.3zM74.9 55.5c-1.5-3.9-11.5-30.7-11.5-30.7l-.3-1.4C60.8 15.1 53.6 8.7 44.7 7.9L1.3 5.3.2 10.5s12.6 2.7 19.3 7.6c2.3 1.6 2.9 2.9 3.4 5.4L39.7 81.3h23.2L97.2 0H74.8l.1 55.5z"/></svg>
